<?xml version="1.0" encoding="utf-8"?>
<!-- Generator: Adobe Illustrator 27.6.0, SVG Export Plug-In . SVG Version: 6.00 Build 0)  -->
<svg version="1.1" id="Layer_1" xmlns="http://www.w3.org/2000/svg" xmlns:xlink="http://www.w3.org/1999/xlink" x="0px" y="0px"
	 viewBox="0 0 1000 1000" style="enable-background:new 0 0 1000 1000;" xml:space="preserve">
<style type="text/css">
	.st0{fill:#FFFFFF;}
	.st1{fill:#FE634E;}
</style>
<rect x="146.3" y="275.4" class="st0" width="785.5" height="567.8"/>
<g id="_x39_43362" transform="matrix(32.3527 0 0 32.3527 499.9999 500)">
	<path vector-effect="non-scaling-stroke" class="st1" d="M14,9.9l-0.1-18c0-0.6-0.5-1-1-1L0.1-9c-0.4,0-0.7-0.7-0.7-1v-0.1
		c0-0.6-0.5-1.1-1.1-1.1l-6.8,0.1c-0.5,0-1,0.4-1,1v0.1c0,0.3-0.3,1-0.7,1l0,0c-0.5,0-1,0.5-1,1v5.2h-2.2c0,0-1,0-0.6,1.1l2.4,11.7
		c0,0.6,0.4,1.1,1,1.1l24-0.2C14.1,11.1,14,9.9,14,9.9z M12.7-1.3l0.1,11.8L10.4-2.1c-0.2-0.7-1-0.6-1-0.6L-9.9-2.7v-4l22.6-0.2
		V-1.3L12.7-1.3z"/>
</g>
</svg>
