<?xml version="1.0" encoding="utf-8"?>
<!-- Generator: Adobe Illustrator 25.4.1, SVG Export Plug-In . SVG Version: 6.00 Build 0)  -->
<svg version="1.1" id="Layer_1" xmlns="http://www.w3.org/2000/svg" xmlns:xlink="http://www.w3.org/1999/xlink" x="0px" y="0px"
	 viewBox="0 0 32 32" style="enable-background:new 0 0 32 32;" xml:space="preserve">
<style type="text/css">
	.st0{fill:url(#SVGID_1_);}
	.st1{opacity:0.1;fill:url(#SVGID_00000018224509846506342310000013917340331146672317_);}
	.st2{fill:#FFFFFF;}
</style>
<linearGradient id="SVGID_1_" gradientUnits="userSpaceOnUse" x1="6.6498" y1="25.2401" x2="27.2678" y2="4.6221" gradientTransform="matrix(1 0 0 -1 0 31.8898)">
	<stop  offset="0" style="stop-color:#1D1D1B;stop-opacity:0.42"/>
	<stop  offset="1" style="stop-color:#000000;stop-opacity:0.6"/>
</linearGradient>
<path class="st0" d="M23.5,2h-12c-0.1,0-0.3,0.1-0.4,0.2l-5,5C6.1,7.2,6,7.4,6,7.5v20C6,28.9,7.1,30,8.5,30h15
	c1.4,0,2.5-1.1,2.5-2.5v-23C26,3.1,24.9,2,23.5,2z"/>
<linearGradient id="SVGID_00000062893619837409927290000010742309314566242489_" gradientUnits="userSpaceOnUse" x1="5.9556" y1="4.9797" x2="12.0014" y2="4.9797">
	<stop  offset="0" style="stop-color:#000000"/>
	<stop  offset="1" style="stop-color:#000000"/>
</linearGradient>
<path style="opacity:0.1;fill:url(#SVGID_00000062893619837409927290000010742309314566242489_);" d="M11.7,2
	c-0.2-0.1-0.4,0-0.5,0.1l-5,5C6,7.2,5.9,7.5,6,7.7C6.1,7.9,6.3,8,6.5,8h3C10.9,8,12,6.9,12,5.5v-3C12,2.3,11.9,2.1,11.7,2z"/>
<g>
	<path class="st2" d="M11.9,11.4c0.1,0.1,0.1,0.2,0.1,0.4v0.4c0,0.1,0,0.3-0.1,0.4c-0.1,0.1-0.2,0.1-0.3,0.1h-1.2v7.3h1.3
		c0.1,0,0.2,0,0.3,0.1c0.1,0.1,0.1,0.2,0.1,0.3v0.4c0,0.1,0,0.3-0.1,0.3c-0.1,0.1-0.1,0.1-0.3,0.1H8.1c-0.1,0-0.2,0-0.3-0.1
		c-0.1-0.1-0.1-0.2-0.1-0.3v-0.4c0-0.1,0-0.3,0.1-0.3s0.2-0.1,0.3-0.1h1.3v-7.3H8.2c-0.1,0-0.2,0-0.3-0.1c-0.1-0.1-0.1-0.2-0.1-0.3
		v-0.4c0-0.1,0-0.3,0.1-0.4c0.1-0.1,0.2-0.1,0.3-0.1h3.4C11.7,11.3,11.8,11.3,11.9,11.4z"/>
	<path class="st2" d="M18.3,20.8c0,0.1,0,0.3-0.1,0.4c-0.1,0.1-0.2,0.1-0.3,0.1h-0.3c-0.1,0-0.2,0-0.2-0.1c-0.1-0.1-0.1-0.2-0.1-0.4
		l-0.2-7l-0.9,2.6c-0.1,0.2-0.2,0.3-0.4,0.3h-0.3c-0.2,0-0.3-0.1-0.4-0.3l-0.9-2.6l-0.2,7c0,0.1,0,0.3-0.1,0.4
		c-0.1,0.1-0.1,0.1-0.2,0.1h-0.3c-0.1,0-0.2,0-0.3-0.1s-0.1-0.2-0.1-0.4l0.2-9c0-0.1,0-0.3,0.1-0.4s0.2-0.1,0.3-0.1h0.2
		c0.3,0,0.6,0.2,0.7,0.6l1.3,3.5l1.3-3.5c0.1-0.4,0.4-0.6,0.7-0.6h0.2c0.1,0,0.2,0,0.3,0.1s0.1,0.2,0.1,0.4L18.3,20.8z"/>
	<path class="st2" d="M23.5,15.7c0.1,0.1,0.1,0.2,0.1,0.4v4.5c0,0.3-0.1,0.4-0.3,0.5c-0.5,0.3-1,0.4-1.5,0.4c-0.8,0-1.5-0.4-2-1.2
		s-0.7-1.9-0.7-3.4v-1.2c0-1.4,0.2-2.6,0.7-3.4c0.5-0.8,1.1-1.2,2-1.2c0.5,0,1,0.1,1.4,0.4c0.1,0.1,0.2,0.2,0.2,0.4
		c0,0.1,0,0.1,0,0.2l-0.1,0.3c-0.1,0.2-0.2,0.3-0.3,0.3c-0.1,0-0.1,0-0.2,0c-0.4-0.2-0.8-0.3-1.1-0.3c-0.5,0-0.9,0.3-1.2,0.8
		c-0.3,0.5-0.4,1.3-0.4,2.4V17c0,1,0.1,1.8,0.4,2.4c0.3,0.5,0.7,0.8,1.2,0.8c0.2,0,0.4,0,0.7-0.1v-3.1h-0.6c-0.1,0-0.2,0-0.3-0.1
		c-0.1-0.1-0.1-0.2-0.1-0.4v-0.4c0-0.2,0-0.3,0.1-0.4c0.1-0.1,0.1-0.1,0.3-0.1h1.3C23.4,15.6,23.4,15.6,23.5,15.7z"/>
</g>
</svg>
