<?xml version="1.0" encoding="utf-8"?>
<!-- Generator: Adobe Illustrator 25.4.1, SVG Export Plug-In . SVG Version: 6.00 Build 0)  -->
<svg version="1.1" id="Capa_2" xmlns="http://www.w3.org/2000/svg" xmlns:xlink="http://www.w3.org/1999/xlink" x="0px" y="0px"
	 viewBox="0 0 595.3 841.9" style="enable-background:new 0 0 595.3 841.9;" xml:space="preserve">
<style type="text/css">
	.st0{fill:none;stroke:#000000;stroke-width:20;stroke-linecap:round;stroke-miterlimit:10;}
	.st1{fill:#FFFFFF;stroke:#000000;stroke-width:20;stroke-linecap:round;stroke-miterlimit:10;}
</style>
<g>
	<path class="st0" d="M186.2,330c6.6-0.1-14,0.3-14,0.3c-3.8,0.1-7.2,3.3-7.4,7.1l-4,62.4c-0.2,3.8-0.6,10.1-0.8,14l-6.9,144.8
		c0,0.5-0.1,1.1-0.1,1.6l-2.7,54.6c-0.2,3.8-0.3,10.1-0.3,13.9c0,3.8,3.1,6.9,7,6.9h72.8c3.8,0,10.1,0,14,0h157.5c3.8,0,10.1,0,14,0
		h48.2c3.8,0,9.8-1.4,13.3-3.1l4.6-2.3c3.4-1.7,6.3-6.3,6.3-10.1V616c0-3.8-0.2-10.1-0.4-14l-12.2-241.4c-0.2-3.8-1.2-10-2.2-13.7
		l-2.7-9.9c-1-3.7-5-6.7-8.9-6.7h-14.6"/>
</g>
<line class="st1" x1="237.6" y1="330" x2="391.3" y2="330"/>
<path class="st0" d="M215.2,376.2c0,0-4.7-56.1,4.8-107.7c9.3-50.4,120.7-124.1,188-22.4c17.5,26.5,14.2,73.3,14.2,130.1"/>
<g>
	<path d="M210.5,513.9l6.4-7.5c4.4,4.2,10.4,7,16.1,7c7,0,10.8-3.2,10.8-8c0-5.1-4-6.7-9.6-9.1l-8.4-3.7
		c-6.1-2.5-12.5-7.3-12.5-16.4c0-9.8,8.7-17.4,20.7-17.4c7.2,0,14.2,3,19,7.9l-5.6,7c-3.9-3.3-8.1-5.3-13.4-5.3
		c-5.9,0-9.7,2.7-9.7,7.3c0,4.9,4.7,6.6,9.8,8.7l8.3,3.5c7.3,3.1,12.5,7.7,12.5,16.7c0,10-8.3,18.4-22.2,18.4
		C224.4,523,216.4,519.7,210.5,513.9z"/>
	<path d="M266.2,460.1h11v24.8h25v-24.8h11v61.8h-11v-27.4h-25v27.4h-11V460.1z"/>
	<path d="M325.6,490.7c0-20,11.1-31.8,27.2-31.8c16.1,0,27.2,11.8,27.2,31.8c0,20-11.1,32.3-27.2,32.3
		C336.7,523,325.6,510.7,325.6,490.7z M368.8,490.7c0-13.9-6.3-22.2-16-22.2c-9.7,0-16,8.4-16,22.2c0,13.9,6.3,22.7,16,22.7
		C362.5,513.5,368.8,504.6,368.8,490.7z"/>
	<path d="M392.5,460.1h19.5c13.7,0,23.9,4.8,23.9,19c0,13.8-10.2,20-23.5,20h-8.9v22.7h-11V460.1z M411.4,490.4
		c9.2,0,13.6-3.7,13.6-11.3c0-7.7-4.8-10.3-14-10.3h-7.6v21.5H411.4z"/>
</g>
</svg>
